<svg width="390" height="483" fill="none" xmlns="http://www.w3.org/2000/svg"><path d="M0 1h60.938l10.156 17.598h247.812L329.062 1H390v463.402h-60.938L318.906 482H71.094l-10.156-17.598H0V1z" fill="#fff" fill-opacity=".03"/><path d="M0 1h60.938l10.156 17.598h247.812L329.062 1H390v463.402h-60.938L318.906 482H71.094l-10.156-17.598H0V1z" fill="url(#paint0_radial_48_121)"/><path d="M0 1h60.938l10.156 17.598h247.812L329.062 1H390v463.402h-60.938L318.906 482H71.094l-10.156-17.598H0V1z" fill="url(#paint1_radial_48_121)"/><path d="M0 1h60.938l10.156 18h247.812l10.156-18H390" stroke="url(#paint2_linear_48_121)" stroke-opacity=".2" stroke-width="2"/><path d="M390 464h-60.938l-10.156 18H71.094l-10.156-18H0" stroke="url(#paint3_linear_48_121)" stroke-width="2"/><defs><radialGradient id="paint0_radial_48_121" cx="0" cy="0" r="1" gradientUnits="userSpaceOnUse" gradientTransform="scale(201.805 228.768) rotate(90 .472 .528)"><stop stop-color="#fff" stop-opacity=".1"/><stop offset="1" stop-color="#fff" stop-opacity="0"/></radialGradient><radialGradient id="paint1_radial_48_121" cx="0" cy="0" r="1" gradientUnits="userSpaceOnUse" gradientTransform="matrix(0 -240.5 195 0 195 482)"><stop stop-color="#CC402A" stop-opacity=".2"/><stop offset="1" stop-color="#CC402A" stop-opacity="0"/></radialGradient><linearGradient id="paint2_linear_48_121" x1="0" y1="19" x2="390" y2="19" gradientUnits="userSpaceOnUse"><stop stop-color="#fff" stop-opacity="0"/><stop offset=".5" stop-color="#fff"/><stop offset="1" stop-color="#fff" stop-opacity="0"/></linearGradient><linearGradient id="paint3_linear_48_121" x1="390" y1="482" x2="0" y2="482" gradientUnits="userSpaceOnUse"><stop stop-color="#CC402A" stop-opacity="0"/><stop offset=".5" stop-color="#CC402A"/><stop offset="1" stop-color="#CC402A" stop-opacity="0"/></linearGradient></defs></svg>