<svg width="40" height="40" viewBox="0 0 40 40" fill="none" xmlns="http://www.w3.org/2000/svg">
<g clip-path="url(#clip0_29_3735)">
<path d="M40 0H0V40H40V0Z" fill="#003399"/>
<path d="M20.1055 6L19.4913 7.89015L20.4364 8.19722L20.1055 6Z" fill="#FFCC00"/>
<path d="M20.1055 6L20.7196 7.89015L19.7745 8.19722L20.1055 6Z" fill="#FFCC00"/>
<path d="M21.9941 7.37329H20.0067V8.367L21.9941 7.37329Z" fill="#FFCC00"/>
<path d="M21.9941 7.37329L20.3863 8.54147L19.8022 7.73754L21.9941 7.37329Z" fill="#FFCC00"/>
<path d="M21.2754 9.59546L20.6612 7.70531L19.7162 8.01238L21.2754 9.59546Z" fill="#FFCC00"/>
<path d="M21.2754 9.59546L19.6675 8.42728L20.2516 7.62335L21.2754 9.59546Z" fill="#FFCC00"/>
<path d="M18.2109 7.37335H20.1984V8.36706L18.2109 7.37335Z" fill="#FFCC00"/>
<path d="M18.2109 7.37335L19.8188 8.54153L20.4029 7.7376L18.2109 7.37335Z" fill="#FFCC00"/>
<path d="M18.9297 9.5954L19.5438 7.70525L20.4889 8.01232L18.9297 9.5954Z" fill="#FFCC00"/>
<path d="M18.9297 9.5954L20.5375 8.42722L19.9535 7.62329L18.9297 9.5954Z" fill="#FFCC00"/>
<path d="M20.1055 29.8491L19.4913 31.7392L20.4364 32.0463L20.1055 29.8491Z" fill="#FFCC00"/>
<path d="M20.1055 29.8491L20.7196 31.7392L19.7745 32.0463L20.1055 29.8491Z" fill="#FFCC00"/>
<path d="M21.9941 31.2222H20.0067V32.2159L21.9941 31.2222Z" fill="#FFCC00"/>
<path d="M21.9941 31.2222L20.3863 32.3904L19.8022 31.5865L21.9941 31.2222Z" fill="#FFCC00"/>
<path d="M21.2754 33.4444L20.6612 31.5542L19.7162 31.8613L21.2754 33.4444Z" fill="#FFCC00"/>
<path d="M21.2754 33.4444L19.6675 32.2762L20.2516 31.4723L21.2754 33.4444Z" fill="#FFCC00"/>
<path d="M18.2109 31.2222H20.1984V32.2159L18.2109 31.2222Z" fill="#FFCC00"/>
<path d="M18.2109 31.2222L19.8188 32.3904L20.4029 31.5865L18.2109 31.2222Z" fill="#FFCC00"/>
<path d="M18.9297 33.4443L19.5438 31.5542L20.4889 31.8613L18.9297 33.4443Z" fill="#FFCC00"/>
<path d="M18.9297 33.4443L20.5375 32.2762L19.9535 31.4722L18.9297 33.4443Z" fill="#FFCC00"/>
<path d="M8.17773 17.9246L7.56359 19.8147L8.50866 20.1218L8.17773 17.9246Z" fill="#FFCC00"/>
<path d="M8.17773 17.9246L8.79188 19.8147L7.84681 20.1218L8.17773 17.9246Z" fill="#FFCC00"/>
<path d="M10.0684 19.2979H8.08094V20.2916L10.0684 19.2979Z" fill="#FFCC00"/>
<path d="M10.0684 19.2979L8.4605 20.4661L7.87641 19.6622L10.0684 19.2979Z" fill="#FFCC00"/>
<path d="M9.34961 21.5198L8.73546 19.6297L7.79039 19.9368L9.34961 21.5198Z" fill="#FFCC00"/>
<path d="M9.34961 21.5198L7.74175 20.3517L8.32584 19.5477L9.34961 21.5198Z" fill="#FFCC00"/>
<path d="M6.2832 19.2979H8.27062V20.2916L6.2832 19.2979Z" fill="#FFCC00"/>
<path d="M6.2832 19.2979L7.89106 20.466L8.47515 19.6621L6.2832 19.2979Z" fill="#FFCC00"/>
<path d="M7.00391 21.5199L7.61805 19.6297L8.56313 19.9368L7.00391 21.5199Z" fill="#FFCC00"/>
<path d="M7.00391 21.5199L8.61176 20.3517L8.02768 19.5478L7.00391 21.5199Z" fill="#FFCC00"/>
<path d="M12.9785 11.193L14.5864 10.0248L14.0023 9.22089L12.9785 11.193Z" fill="#FFCC00"/>
<path d="M12.9785 11.193L13.5927 9.30284L14.5377 9.60992L12.9785 11.193Z" fill="#FFCC00"/>
<path d="M12.252 8.97076L13.8598 10.1389L14.4439 9.33501L12.252 8.97076Z" fill="#FFCC00"/>
<path d="M12.252 8.97076H14.2394V9.96447L12.252 8.97076Z" fill="#FFCC00"/>
<path d="M14.1387 7.59753L13.5245 9.48768L14.4696 9.79476L14.1387 7.59753Z" fill="#FFCC00"/>
<path d="M14.1387 7.59753L14.7528 9.48768L13.8077 9.79476L14.1387 7.59753Z" fill="#FFCC00"/>
<path d="M15.3008 11.193L13.6929 10.0248L14.277 9.22089L15.3008 11.193Z" fill="#FFCC00"/>
<path d="M15.3008 11.193L14.6866 9.30284L13.7416 9.60992L15.3008 11.193Z" fill="#FFCC00"/>
<path d="M16.0254 8.97095L14.4175 10.1391L13.8334 9.3352L16.0254 8.97095Z" fill="#FFCC00"/>
<path d="M16.0254 8.97095H14.038V9.96466L16.0254 8.97095Z" fill="#FFCC00"/>
<path d="M10.9473 15.5577L10.3331 13.6675L9.38804 13.9746L10.9473 15.5577Z" fill="#FFCC00"/>
<path d="M10.9473 15.5577L9.33941 14.3895L9.9235 13.5856L10.9473 15.5577Z" fill="#FFCC00"/>
<path d="M8.62109 15.5579L10.229 14.3897L9.64486 13.5858L8.62109 15.5579Z" fill="#FFCC00"/>
<path d="M8.62109 15.5579L9.23524 13.6677L10.1803 13.9748L8.62109 15.5579Z" fill="#FFCC00"/>
<path d="M7.89453 13.3359L9.50239 14.5041L10.0865 13.7002L7.89453 13.3359Z" fill="#FFCC00"/>
<path d="M7.89453 13.3359H9.88195V14.3296L7.89453 13.3359Z" fill="#FFCC00"/>
<path d="M11.6641 13.3358L10.0562 14.504L9.47212 13.7001L11.6641 13.3358Z" fill="#FFCC00"/>
<path d="M11.6641 13.3358H9.67664V14.3295L11.6641 13.3358Z" fill="#FFCC00"/>
<path d="M9.77344 11.9624L10.3876 13.8526L9.44251 14.1596L9.77344 11.9624Z" fill="#FFCC00"/>
<path d="M9.77344 11.9624L9.15929 13.8526L10.1044 14.1596L9.77344 11.9624Z" fill="#FFCC00"/>
<path d="M11.666 25.2598H9.67859V26.2535L11.666 25.2598Z" fill="#FFCC00"/>
<path d="M11.666 25.2598L10.0582 26.428L9.47407 25.6241L11.666 25.2598Z" fill="#FFCC00"/>
<path d="M10.9395 27.482L10.3253 25.5918L9.38023 25.8989L10.9395 27.482Z" fill="#FFCC00"/>
<path d="M10.9395 27.482L9.3316 26.3138L9.91568 25.5099L10.9395 27.482Z" fill="#FFCC00"/>
<path d="M8.60742 27.4821L10.2153 26.3139L9.63119 25.51L8.60742 27.4821Z" fill="#FFCC00"/>
<path d="M8.60742 27.4821L9.22157 25.592L10.1666 25.899L8.60742 27.4821Z" fill="#FFCC00"/>
<path d="M9.76953 23.8868L10.3837 25.7769L9.4386 26.084L9.76953 23.8868Z" fill="#FFCC00"/>
<path d="M9.76953 23.8868L9.15538 25.7769L10.1005 26.084L9.76953 23.8868Z" fill="#FFCC00"/>
<path d="M7.87305 25.2599H9.86047V26.2537L7.87305 25.2599Z" fill="#FFCC00"/>
<path d="M7.87305 25.2599L9.48091 26.4281L10.065 25.6242L7.87305 25.2599Z" fill="#FFCC00"/>
<path d="M16.0332 29.6248H14.0458V30.6185L16.0332 29.6248Z" fill="#FFCC00"/>
<path d="M16.0332 29.6248L14.4253 30.7929L13.8413 29.989L16.0332 29.6248Z" fill="#FFCC00"/>
<path d="M15.3105 31.8466L14.6964 29.9565L13.7513 30.2635L15.3105 31.8466Z" fill="#FFCC00"/>
<path d="M15.3105 31.8466L13.7027 30.6784L14.2868 29.8745L15.3105 31.8466Z" fill="#FFCC00"/>
<path d="M12.9785 31.8467L14.5864 30.6786L14.0023 29.8746L12.9785 31.8467Z" fill="#FFCC00"/>
<path d="M12.9785 31.8467L13.5927 29.9566L14.5377 30.2637L12.9785 31.8467Z" fill="#FFCC00"/>
<path d="M14.1406 28.2514L14.7548 30.1416L13.8097 30.4486L14.1406 28.2514Z" fill="#FFCC00"/>
<path d="M14.1406 28.2514L13.5265 30.1416L14.4716 30.4486L14.1406 28.2514Z" fill="#FFCC00"/>
<path d="M12.2461 29.6247H14.2335V30.6184L12.2461 29.6247Z" fill="#FFCC00"/>
<path d="M12.2461 29.6247L13.854 30.7929L14.438 29.9889L12.2461 29.6247Z" fill="#FFCC00"/>
<path d="M32.0215 17.9246L32.6356 19.8147L31.6906 20.1218L32.0215 17.9246Z" fill="#FFCC00"/>
<path d="M32.0215 17.9246L31.4073 19.8147L32.3524 20.1218L32.0215 17.9246Z" fill="#FFCC00"/>
<path d="M30.1348 19.298H32.1222V20.2917L30.1348 19.298Z" fill="#FFCC00"/>
<path d="M30.1348 19.298L31.7426 20.4662L32.3267 19.6622L30.1348 19.298Z" fill="#FFCC00"/>
<path d="M30.8535 21.52L31.4677 19.6298L32.4127 19.9369L30.8535 21.52Z" fill="#FFCC00"/>
<path d="M30.8535 21.52L32.4614 20.3518L31.8773 19.5479L30.8535 21.52Z" fill="#FFCC00"/>
<path d="M33.918 19.298H31.9305V20.2917L33.918 19.298Z" fill="#FFCC00"/>
<path d="M33.918 19.298L32.3101 20.4662L31.726 19.6622L33.918 19.298Z" fill="#FFCC00"/>
<path d="M33.2012 21.52L32.587 19.6298L31.6419 19.9369L33.2012 21.52Z" fill="#FFCC00"/>
<path d="M33.2012 21.52L31.5933 20.3518L32.1774 19.5479L33.2012 21.52Z" fill="#FFCC00"/>
<path d="M27.2266 11.193L25.6187 10.0248L26.2028 9.22089L27.2266 11.193Z" fill="#FFCC00"/>
<path d="M27.2266 11.193L26.6124 9.30284L25.6673 9.60992L27.2266 11.193Z" fill="#FFCC00"/>
<path d="M27.9492 8.97101L26.3414 10.1392L25.7573 9.33526L27.9492 8.97101Z" fill="#FFCC00"/>
<path d="M27.9492 8.97101H25.9618V9.96472L27.9492 8.97101Z" fill="#FFCC00"/>
<path d="M26.0625 7.59778L26.6766 9.48793L25.7316 9.795L26.0625 7.59778Z" fill="#FFCC00"/>
<path d="M26.0625 7.59778L25.4484 9.48793L26.3934 9.795L26.0625 7.59778Z" fill="#FFCC00"/>
<path d="M24.8926 11.1931L26.5004 10.0249L25.9163 9.22095L24.8926 11.1931Z" fill="#FFCC00"/>
<path d="M24.8926 11.1931L25.5067 9.3029L26.4518 9.60998L24.8926 11.1931Z" fill="#FFCC00"/>
<path d="M24.168 8.97101L25.7758 10.1392L26.3599 9.33526L24.168 8.97101Z" fill="#FFCC00"/>
<path d="M24.168 8.97101H26.1554V9.96472L24.168 8.97101Z" fill="#FFCC00"/>
<path d="M29.2539 15.5575L29.8681 13.6673L30.8131 13.9744L29.2539 15.5575Z" fill="#FFCC00"/>
<path d="M29.2539 15.5575L30.8618 14.3893L30.2777 13.5854L29.2539 15.5575Z" fill="#FFCC00"/>
<path d="M31.5898 15.5578L29.982 14.3896L30.5661 13.5857L31.5898 15.5578Z" fill="#FFCC00"/>
<path d="M31.5898 15.5578L30.9757 13.6677L30.0306 13.9747L31.5898 15.5578Z" fill="#FFCC00"/>
<path d="M32.3164 13.3359L30.7085 14.5041L30.1245 13.7001L32.3164 13.3359Z" fill="#FFCC00"/>
<path d="M32.3164 13.3359H30.329V14.3296L32.3164 13.3359Z" fill="#FFCC00"/>
<path d="M28.543 13.3358L30.1508 14.5039L30.7349 13.7L28.543 13.3358Z" fill="#FFCC00"/>
<path d="M28.543 13.3358H30.5304V14.3295L28.543 13.3358Z" fill="#FFCC00"/>
<path d="M30.4336 11.9623L29.8194 13.8525L30.7645 14.1596L30.4336 11.9623Z" fill="#FFCC00"/>
<path d="M30.4336 11.9623L31.0477 13.8525L30.1027 14.1596L30.4336 11.9623Z" fill="#FFCC00"/>
<path d="M28.5371 25.2599H30.5245V26.2537L28.5371 25.2599Z" fill="#FFCC00"/>
<path d="M28.5371 25.2599L30.145 26.4281L30.7291 25.6242L28.5371 25.2599Z" fill="#FFCC00"/>
<path d="M29.2637 27.4821L29.8778 25.592L30.8229 25.899L29.2637 27.4821Z" fill="#FFCC00"/>
<path d="M29.2637 27.4821L30.8715 26.3139L30.2874 25.51L29.2637 27.4821Z" fill="#FFCC00"/>
<path d="M31.5957 27.4822L29.9878 26.3141L30.5719 25.5101L31.5957 27.4822Z" fill="#FFCC00"/>
<path d="M31.5957 27.4822L30.9816 25.5921L30.0365 25.8992L31.5957 27.4822Z" fill="#FFCC00"/>
<path d="M30.4336 23.8867L29.8194 25.7769L30.7645 26.0839L30.4336 23.8867Z" fill="#FFCC00"/>
<path d="M30.4336 23.8867L31.0477 25.7769L30.1027 26.0839L30.4336 23.8867Z" fill="#FFCC00"/>
<path d="M32.3301 25.2599H30.3427V26.2536L32.3301 25.2599Z" fill="#FFCC00"/>
<path d="M32.3301 25.2599L30.7222 26.4281L30.1381 25.6241L32.3301 25.2599Z" fill="#FFCC00"/>
<path d="M24.1719 29.6246H26.1593V30.6183L24.1719 29.6246Z" fill="#FFCC00"/>
<path d="M24.1719 29.6246L25.7797 30.7928L26.3638 29.9889L24.1719 29.6246Z" fill="#FFCC00"/>
<path d="M24.8984 31.8467L25.5126 29.9566L26.4577 30.2637L24.8984 31.8467Z" fill="#FFCC00"/>
<path d="M24.8984 31.8467L26.5063 30.6786L25.9222 29.8746L24.8984 31.8467Z" fill="#FFCC00"/>
<path d="M27.2305 31.8469L25.6226 30.6787L26.2067 29.8748L27.2305 31.8469Z" fill="#FFCC00"/>
<path d="M27.2305 31.8469L26.6163 29.9567L25.6712 30.2638L27.2305 31.8469Z" fill="#FFCC00"/>
<path d="M26.0664 28.2514L25.4523 30.1416L26.3973 30.4486L26.0664 28.2514Z" fill="#FFCC00"/>
<path d="M26.0664 28.2514L26.6806 30.1416L25.7355 30.4486L26.0664 28.2514Z" fill="#FFCC00"/>
<path d="M27.9629 29.6248H25.9755V30.6185L27.9629 29.6248Z" fill="#FFCC00"/>
<path d="M27.9629 29.6248L26.355 30.7929L25.7709 29.989L27.9629 29.6248Z" fill="#FFCC00"/>
</g>
<defs>
<clipPath id="clip0_29_3735">
<rect width="40" height="40" rx="20" fill="white"/>
</clipPath>
</defs>
</svg>
