<svg width="20" height="20" fill="none" xmlns="http://www.w3.org/2000/svg"><path fill-rule="evenodd" clip-rule="evenodd" d="M15.212 12.22l.219-1.57c.067-.484.129-.926.183-1.33.113-.834.169-1.25-.08-1.535C15.284 7.5 14.857 7.5 14 7.5H5.999c-.856 0-1.284 0-1.533.285-.249.285-.193.701-.08 1.534.054.406.116.847.183 1.33l.219 1.572c.237 1.707.356 2.56.608 3.246.47 1.282 1.285 2.237 2.257 2.647.52.22 1.129.22 2.347.22s1.827 0 2.347-.22c.972-.41 1.786-1.365 2.257-2.647.252-.686.37-1.54.608-3.247zM8.958 9.168a.625.625 0 10-1.25 0v6.666a.625.625 0 001.25 0V9.167zm3.334 0a.625.625 0 10-1.25 0v6.666a.625.625 0 001.25 0V9.167z" fill="#E3DAD1"/><path d="M10 1.042A3.958 3.958 0 006.042 5v.208H3.333a.625.625 0 000 1.25h13.334a.625.625 0 100-1.25h-2.709V5A3.958 3.958 0 0010 1.042z" fill="#E3DAD1"/></svg>