<svg width="24" height="18" fill="none" xmlns="http://www.w3.org/2000/svg"><path d="M20.674 2.097C18.597.426 15.312.142 15.17.132a.518.518 0 00-.515.306 3.453 3.453 0 00-.16.434c1.374.232 3.062.7 4.588 1.647a.521.521 0 11-.55.887c-2.625-1.63-5.902-1.71-6.534-1.71-.631 0-3.911.081-6.534 1.71a.522.522 0 01-.55-.888C6.442 1.574 8.13 1.104 9.503.874c-.079-.258-.15-.422-.156-.436a.515.515 0 00-.518-.306c-.141.01-3.426.294-5.532 1.988C2.2 3.136 0 9.08 0 14.217c0 .092.025.18.07.26 1.516 2.665 5.655 3.362 6.598 3.392h.017a.522.522 0 00.422-.213l.953-1.313c-2.573-.664-3.888-1.793-3.963-1.86a.522.522 0 11.69-.783c.03.029 2.452 2.083 7.213 2.083 4.769 0 7.19-2.063 7.215-2.083a.522.522 0 01.688.782c-.075.068-1.39 1.197-3.963 1.86l.953 1.314a.522.522 0 00.422.213h.016c.945-.03 5.083-.727 6.6-3.393a.527.527 0 00.069-.259c0-5.138-2.2-11.08-3.326-12.12zM8.609 12.13c-1.01 0-1.826-.934-1.826-2.087S7.6 7.956 8.609 7.956c1.009 0 1.826.934 1.826 2.087 0 1.154-.817 2.087-1.826 2.087zm6.782 0c-1.009 0-1.826-.934-1.826-2.087s.817-2.087 1.826-2.087c1.01 0 1.826.934 1.826 2.087 0 1.154-.817 2.087-1.826 2.087z" fill="#E3DAD1"/></svg>