<svg width="18" height="18" viewBox="0 0 18 18" fill="none" xmlns="http://www.w3.org/2000/svg">
<path d="M11.3182 12C16.2457 11.973 18 9.36301 18 7.12501C17.9995 6.52505 17.7935 5.94335 17.4163 5.47678C17.0392 5.01021 16.5135 4.68693 15.927 4.56077C16.029 4.27052 16.1175 4.00427 16.1767 3.80252C16.3077 3.36373 16.3334 2.90027 16.2518 2.44968C16.1702 1.9991 15.9837 1.57407 15.7072 1.20902C15.4285 0.832436 15.0651 0.526754 14.6463 0.316717C14.2276 0.10668 13.7652 -0.00181142 13.2967 2.28781e-05H4.70324C4.23476 -0.00181142 3.77242 0.10668 3.35365 0.316717C2.93487 0.526754 2.57144 0.832436 2.29275 1.20902C2.0163 1.57407 1.82974 1.9991 1.74817 2.44968C1.6666 2.90027 1.69232 3.36373 1.82325 3.80252C1.8825 4.00427 1.97325 4.27052 2.073 4.56077C1.48645 4.68693 0.960818 5.01021 0.583633 5.47678C0.206447 5.94335 0.000469709 6.52505 0 7.12501C0 9.36301 1.75425 11.973 6.68174 12C6.72554 12.2277 6.74839 12.4589 6.74999 12.6908V15C6.76288 15.2003 6.73291 15.4011 6.66209 15.5889C6.59126 15.7768 6.48121 15.9473 6.33927 16.0893C6.19732 16.2312 6.02675 16.3413 5.83892 16.4121C5.65109 16.4829 5.45032 16.5129 5.24999 16.5H4.49999C4.30108 16.5 4.11032 16.579 3.96967 16.7197C3.82901 16.8603 3.75 17.0511 3.75 17.25C3.75 17.4489 3.82901 17.6397 3.96967 17.7803C4.11032 17.921 4.30108 18 4.49999 18H13.5C13.6989 18 13.8897 17.921 14.0303 17.7803C14.171 17.6397 14.25 17.4489 14.25 17.25C14.25 17.0511 14.171 16.8603 14.0303 16.7197C13.8897 16.579 13.6989 16.5 13.5 16.5H12.756C12.5552 16.5135 12.3539 16.4841 12.1655 16.4135C11.977 16.343 11.8058 16.2331 11.6632 16.0911C11.5207 15.9491 11.4101 15.7783 11.3388 15.5902C11.2675 15.402 11.2373 15.2008 11.25 15V12.69C11.2516 12.4584 11.2745 12.2274 11.3182 12ZM15.375 6.00002C15.6733 6.00002 15.9595 6.11854 16.1705 6.32952C16.3815 6.5405 16.5 6.82665 16.5 7.12501C16.5 8.65051 15.2932 10.275 11.973 10.4775C12.139 10.2509 12.3308 10.0442 12.5445 9.86176C13.74 8.78476 14.6928 7.46584 15.3397 5.99252C15.3517 5.99327 15.3622 6.00002 15.375 6.00002ZM1.5 7.12501C1.5 6.82665 1.61852 6.5405 1.8295 6.32952C2.04048 6.11854 2.32663 6.00002 2.625 6.00002C2.63775 6.00002 2.64825 5.99327 2.66025 5.99252C3.30716 7.46584 4.25998 8.78476 5.45549 9.86176C5.66915 10.0442 5.86093 10.2509 6.02699 10.4775C2.70675 10.275 1.5 8.65051 1.5 7.12501ZM7.88474 16.5C8.13269 16.0394 8.25844 15.523 8.24999 15V12.6908C8.25259 11.9361 8.09085 11.19 7.77599 10.5042C7.46113 9.81842 7.00072 9.20941 6.42674 8.71951C4.90164 7.26193 3.80672 5.41303 3.26175 3.37502C3.1977 3.1599 3.18538 2.9327 3.22579 2.71192C3.26619 2.49113 3.35817 2.28302 3.49425 2.10452C3.63415 1.91591 3.81651 1.7629 4.02655 1.65788C4.23659 1.55286 4.46841 1.49878 4.70324 1.50002H13.2967C13.5318 1.49913 13.7638 1.55367 13.9739 1.65922C14.1839 1.76477 14.3661 1.91836 14.5057 2.10752C14.6418 2.28602 14.7338 2.49413 14.7742 2.71492C14.8146 2.9357 14.8023 3.1629 14.7382 3.37802C14.1927 5.41495 13.0979 7.26276 11.5732 8.71951C10.9993 9.20926 10.5389 9.81814 10.224 10.5038C9.90914 11.1895 9.74739 11.9355 9.74999 12.69V15C9.74153 15.523 9.86729 16.0394 10.1152 16.5H7.88474Z" fill="#E3DAD1"/>
</svg>
