<svg width="423" height="423" fill="none" xmlns="http://www.w3.org/2000/svg"><path fill="#CC402A" d="M0 0h423v423H0z"/><path d="M118.784 325.191h37.192l-15.442 15.443a6.655 6.655 0 000 9.415 6.637 6.637 0 004.707 1.95c1.704 0 3.407-.65 4.708-1.95l26.809-26.809a6.655 6.655 0 000-9.415l-26.809-26.809a6.655 6.655 0 00-9.415 0 6.655 6.655 0 000 9.415l15.442 15.443h-37.192c-11.015 0-19.976-8.96-19.976-19.976v-53.266a6.654 6.654 0 00-6.658-6.658 6.654 6.654 0 00-6.658 6.658v53.266c0 18.357 14.936 33.293 33.292 33.293zM305.216 98.809h-37.192l15.442-15.443a6.655 6.655 0 000-9.415 6.656 6.656 0 00-9.415 0l-26.809 26.809a6.655 6.655 0 000 9.415l26.809 26.809a6.64 6.64 0 004.708 1.951 6.638 6.638 0 004.707-1.951 6.655 6.655 0 000-9.415l-15.442-15.443h37.192c11.015 0 19.976 8.96 19.976 19.976v53.266a6.654 6.654 0 006.658 6.658 6.654 6.654 0 006.658-6.658v-53.266c0-18.357-14.936-33.293-33.292-33.293zM258.608 179c-44.059 0-79.9 35.841-79.9 79.9 0 44.059 35.841 79.899 79.9 79.899 44.059 0 79.9-35.84 79.9-79.899s-35.84-79.9-79.9-79.9zm0 146.483c-36.712 0-66.583-29.872-66.583-66.583 0-36.712 29.871-66.584 66.583-66.584s66.583 29.872 66.583 66.584c0 36.711-29.871 66.583-66.583 66.583z" fill="#1C1C1C"/><path d="M231.483 164.9a6.654 6.654 0 006.658 6.658 6.655 6.655 0 006.659-6.658c0-44.059-35.841-79.9-79.9-79.9-44.059 0-79.9 35.84-79.9 79.9 0 44.059 35.841 79.899 79.9 79.899a6.654 6.654 0 006.658-6.658 6.654 6.654 0 00-6.658-6.658c-36.712 0-66.584-29.872-66.584-66.583 0-36.712 29.872-66.584 66.584-66.584s66.583 29.872 66.583 66.584z" fill="#1C1C1C"/><path d="M233 232l53 53m-53 0l53-53" stroke="#1C1C1C" stroke-width="13" stroke-linecap="round" stroke-linejoin="round"/><path d="M165.5 132l32.5 32.5-32.5 32.5-32.5-32.5 32.5-32.5z" stroke="#1C1C1C" stroke-width="13"/></svg>