<svg width="210" height="40" fill="none" xmlns="http://www.w3.org/2000/svg"><g clip-path="url(#clip0_31_21)"><mask id="a" style="mask-type:luminance" maskUnits="userSpaceOnUse" x="0" y="0" width="40" height="40"><path d="M40 0H0v40h40V0z" fill="#fff"/></mask><g mask="url(#a)"><path fill-rule="evenodd" clip-rule="evenodd" d="M38.21 21.091c-2.233-.599-2.739-5.834-.907-6.891a3.616 3.616 0 001.373-1.41c-.476-1.738-2.102-4.24-3.019-5.354a3.608 3.608 0 00-1.98.482c-1.998 1.155-6.128-1.933-5.513-4.231.193-.718.091-1.589-.066-2.098-1.135-.587-3.824-1.377-5.822-1.573-.43.314-.923 1.07-1.115 1.794-.652 2.43-5.808 2.783-6.914.868-.369-.64-1.05-1.236-1.519-1.432-1.292.391-4.1 2.019-5.235 2.959.078.665.094 1.438.475 2.098C9.073 8.22 6.08 12.48 3.717 11.845a3.59 3.59 0 00-2.26.126C.91 13.185.08 16.388 0 17.68c.157.352 1.092.97 1.84 1.17 3.217.863 3.242 5.581.911 6.927-.658.38-1.222.908-1.457 1.574.391 1.253 1.965 4.007 2.983 5.182.666.078 1.439-.093 2.1-.475 2.081-1.202 6.244 1.626 5.54 4.253-.182.684-.081 1.403.036 2.108 1.566.665 4.4 1.602 5.966 1.562.51-.47.823-1.124 1.002-1.793.616-2.299 5.701-3.033 6.903-.951.335.582.805 1.135 1.353 1.448 1.645-.47 4.535-2.088 5.516-3.106.038-.744-.242-1.365-.59-1.969-1.299-2.247 1.736-6.183 4.23-5.514.684.183 1.427.12 2.054-.035.548-1.371 1.457-3.82 1.613-5.856-.548-.627-1.068-.92-1.79-1.114zm-7.602 1.519c-1.523 5.687-7.366 9.06-13.053 7.537-5.685-1.524-9.059-7.369-7.535-13.055 1.523-5.687 7.367-9.06 13.052-7.537 5.686 1.523 9.06 7.367 7.536 13.055z" fill="#CC402A"/></g><path d="M53.163 29.6a5.434 5.434 0 01-2.877-.802 6.123 6.123 0 01-2.09-2.133 5.814 5.814 0 01-.773-2.948V22.37c0-.105.048-.157.144-.157h3.292c.076 0 .114.052.114.157v1.346c0 .639.215 1.192.644 1.66.43.458.945.687 1.546.687.61 0 1.13-.234 1.56-.701.43-.477.644-1.026.644-1.646 0-.716-.467-1.341-1.402-1.875-.153-.096-.353-.21-.601-.344a23.503 23.503 0 00-.86-.487c-.333-.18-.658-.357-.972-.53-.315-.18-.62-.352-.916-.514-1.07-.63-1.866-1.417-2.39-2.362-.516-.954-.774-2.023-.774-3.206 0-1.088.267-2.07.802-2.949a5.998 5.998 0 012.09-2.06 5.429 5.429 0 012.82-.774c1.04 0 1.994.258 2.862.773a5.96 5.96 0 012.075 2.09c.525.868.787 1.842.787 2.92v2.404c0 .077-.038.115-.114.115h-3.292c-.076 0-.115-.038-.115-.115L55.34 14.4c0-.687-.215-1.245-.644-1.675a2.09 2.09 0 00-1.532-.644c-.6 0-1.116.23-1.546.687a2.305 2.305 0 00-.644 1.632c0 .64.134 1.174.401 1.603.277.43.778.84 1.503 1.23.076.039.253.134.53.287.276.153.581.325.916.515.343.182.653.349.93.501l.5.258c.974.544 1.742 1.212 2.305 2.004.573.792.859 1.765.859 2.92 0 1.116-.258 2.118-.773 3.005a5.888 5.888 0 01-2.09 2.104c-.868.516-1.832.773-2.89.773zm13.182 0a5.48 5.48 0 01-2.905-.802 5.968 5.968 0 01-2.075-2.147c-.506-.907-.76-1.913-.76-3.02l.03-9.146c0-1.088.248-2.07.744-2.949a5.774 5.774 0 012.047-2.132 5.433 5.433 0 012.92-.816c1.087 0 2.056.262 2.905.787a5.781 5.781 0 012.047 2.133c.515.887.772 1.88.772 2.977v1.345c0 .076-.038.115-.114.115h-3.292c-.076 0-.114-.039-.114-.115v-1.345c0-.65-.21-1.207-.63-1.675a2.03 2.03 0 00-1.575-.701c-.696 0-1.23.238-1.603.715a2.623 2.623 0 00-.558 1.66v9.147c0 .715.21 1.302.63 1.76.42.449.93.673 1.531.673.63 0 1.155-.248 1.575-.744.42-.506.63-1.069.63-1.69v-1.359c0-.076.038-.114.114-.114h3.32c.077 0 .115.038.115.114v1.36c0 1.097-.258 2.099-.773 3.006a6.259 6.259 0 01-2.075 2.16c-.859.535-1.828.802-2.906.802zm11.322-.287h-3.32c-.077 0-.115-.048-.115-.143l.057-20.139c0-.076.038-.114.115-.114h5.925c1.06 0 2.033.258 2.92.773a5.89 5.89 0 012.118 2.075c.535.869.802 1.851.802 2.949 0 .715-.11 1.364-.33 1.946a6.107 6.107 0 01-.772 1.474c-.286.401-.549.697-.787.888 1.059 1.174 1.588 2.552 1.588 4.136l.029 6.012c0 .095-.048.143-.143.143h-3.32c-.077 0-.115-.029-.115-.086v-6.069c0-.706-.249-1.316-.745-1.832a2.443 2.443 0 00-1.832-.773H77.81l-.029 8.617c0 .095-.038.143-.114.143zm2.662-16.89H77.81v4.61h2.52c.6 0 1.135-.225 1.602-.673.477-.449.716-.997.716-1.646 0-.62-.23-1.155-.687-1.603a2.23 2.23 0 00-1.632-.687zm6.455 16.747L90.42 9.03c.02-.076.067-.114.143-.114h4.251c.076 0 .124.038.143.114l3.493 20.14c.009.095-.03.143-.115.143h-3.25c-.094 0-.147-.048-.156-.143l-.316-2.147H90.62l-.315 2.147c-.01.095-.057.143-.143.143H86.9c-.076 0-.115-.048-.115-.143zm5.74-13.512l-1.317 8.23h2.82l-1.203-8.23-.171-1.087-.129 1.087zm11.193 13.655h-3.292c-.096 0-.144-.048-.144-.143l.058-20.139c0-.076.038-.114.114-.114h5.639c1.794 0 3.211.549 4.251 1.646 1.05 1.088 1.575 2.571 1.575 4.451 0 1.374-.272 2.572-.816 3.593-.553 1.011-1.269 1.794-2.147 2.347a5.267 5.267 0 01-2.863.83h-2.232v7.386c0 .095-.048.143-.143.143zm2.375-16.918l-2.232.029v5.81h2.232c.621 0 1.16-.295 1.618-.887.458-.6.687-1.379.687-2.333 0-.763-.205-1.388-.616-1.875-.41-.496-.973-.744-1.689-.744zm11.251 16.918h-3.292c-.096 0-.144-.048-.144-.143l.058-20.139c0-.076.038-.114.114-.114h9.389c.096 0 .144.038.144.114v3.307c0 .076-.039.114-.115.114h-6.011v4.552h6.011c.076 0 .115.047.115.143l.028 3.32c0 .077-.047.115-.143.115h-6.011v8.588c0 .095-.048.143-.143.143zm12.337 0h-3.32c-.077 0-.115-.048-.115-.143l.058-20.139c0-.076.038-.114.114-.114h5.926a5.71 5.71 0 012.919.773 5.887 5.887 0 012.119 2.075c.534.869.801 1.851.801 2.949 0 .715-.109 1.364-.329 1.946a6.069 6.069 0 01-.773 1.474c-.286.401-.548.697-.787.888 1.059 1.174 1.589 2.552 1.589 4.136l.028 6.012c0 .095-.047.143-.143.143h-3.321c-.076 0-.114-.029-.114-.086v-6.069c0-.706-.248-1.316-.744-1.832a2.443 2.443 0 00-1.832-.773h-1.933l-.028 8.617c0 .095-.038.143-.115.143zm2.663-16.89h-2.52v4.61h2.52c.601 0 1.135-.225 1.603-.673.477-.449.715-.997.715-1.646 0-.62-.229-1.155-.687-1.603-.458-.458-1.002-.687-1.631-.687zM145.811 29.6a5.43 5.43 0 01-2.877-.802 6.259 6.259 0 01-2.104-2.133 5.732 5.732 0 01-.787-2.948l.028-9.29c0-1.087.263-2.065.788-2.934a5.89 5.89 0 012.089-2.104 5.405 5.405 0 012.863-.801c1.069 0 2.028.262 2.877.787a5.924 5.924 0 012.061 2.118c.525.878.787 1.856.787 2.934l.029 9.29a5.74 5.74 0 01-.773 2.934 6.085 6.085 0 01-2.09 2.147 5.406 5.406 0 01-2.891.801zm0-3.536c.592 0 1.107-.239 1.546-.716.439-.486.658-1.03.658-1.631l-.028-9.29c0-.648-.206-1.197-.616-1.646-.41-.448-.93-.672-1.56-.672a2.09 2.09 0 00-1.546.658c-.429.44-.644.992-.644 1.66v9.29c0 .639.215 1.192.644 1.66.43.458.945.687 1.546.687zm11.164 3.249h-2.934c-.153 0-.229-.067-.229-.2l-.028-19.967c0-.153.076-.229.229-.229h2.647l4.953 11.55-.144-11.321c0-.153.086-.229.258-.229h2.906c.114 0 .171.076.171.229l.029 19.995c0 .115-.048.172-.143.172h-2.576l-5.082-10.792.215 10.563c0 .153-.09.229-.272.229zm16.66 0h-3.306c-.086 0-.129-.048-.129-.143V12.452h-3.807c-.095 0-.143-.047-.143-.143l.028-3.278c0-.076.039-.114.115-.114h11.136c.105 0 .157.038.157.114v3.278c0 .096-.038.143-.114.143h-3.85l.028 16.718c0 .095-.038.143-.115.143zm8.946 0h-3.321c-.095 0-.143-.048-.143-.143l.029-20.139c0-.076.038-.114.114-.114h3.292c.077 0 .115.038.115.114l.029 20.139c0 .095-.039.143-.115.143zm12.281 0h-9.475c-.077 0-.115-.048-.115-.143l.028-20.14c0-.076.039-.114.115-.114h9.418c.076 0 .114.048.114.143v3.278c0 .076-.038.114-.114.114h-6.011v4.58h6.011c.076 0 .114.039.114.115l.029 3.32c0 .077-.038.115-.114.115h-6.04v5.124h6.04c.076 0 .114.048.114.143v3.35c0 .076-.038.114-.114.114zm6.154 0h-3.32c-.077 0-.115-.048-.115-.143l.057-20.139c0-.076.039-.114.115-.114h5.925c1.06 0 2.033.258 2.92.773a5.887 5.887 0 012.119 2.075c.534.869.801 1.851.801 2.949 0 .715-.11 1.364-.329 1.946-.22.582-.477 1.074-.773 1.474-.286.401-.549.697-.787.888 1.059 1.174 1.589 2.552 1.589 4.136l.028 6.012c0 .095-.048.143-.143.143h-3.32c-.077 0-.115-.029-.115-.086v-6.069c0-.706-.248-1.316-.744-1.832a2.445 2.445 0 00-1.832-.773h-1.933l-.028 8.617c0 .095-.038.143-.115.143zm2.662-16.89h-2.519v4.61h2.519c.602 0 1.136-.225 1.604-.673.476-.449.715-.997.715-1.646 0-.62-.229-1.155-.687-1.603a2.23 2.23 0 00-1.632-.687z" fill="#E3DAD1"/></g><defs><clipPath id="clip0_31_21"><path fill="#fff" d="M0 0h209.771v40H0z"/></clipPath></defs></svg>