<svg width="40" height="39" viewBox="0 0 40 39" fill="none" xmlns="http://www.w3.org/2000/svg">
<g filter="url(#filter0_d_20_8533)">
<path d="M38.0078 0.5625L22.4 12.1547L25.2863 5.31544L38.0078 0.5625Z" fill="#E2761B" stroke="#E2761B" stroke-width="0.3125" stroke-linecap="round" stroke-linejoin="round"/>
<path d="M1.97648 0.5625L17.4588 12.2645L14.7137 5.31544L1.97648 0.5625Z" fill="#E4761B" stroke="#E4761B" stroke-width="0.3125" stroke-linecap="round" stroke-linejoin="round"/>
<path d="M32.3922 27.4331L28.2353 33.8017L37.1294 36.2488L39.6863 27.5743L32.3922 27.4331Z" fill="#E4761B" stroke="#E4761B" stroke-width="0.3125" stroke-linecap="round" stroke-linejoin="round"/>
<path d="M0.329422 27.5743L2.8706 36.2488L11.7647 33.8017L7.60785 27.4331L0.329422 27.5743Z" fill="#E4761B" stroke="#E4761B" stroke-width="0.3125" stroke-linecap="round" stroke-linejoin="round"/>
<path d="M11.2627 16.6723L8.78432 20.4213L17.6157 20.8135L17.302 11.3233L11.2627 16.6723Z" fill="#E4761B" stroke="#E4761B" stroke-width="0.3125" stroke-linecap="round" stroke-linejoin="round"/>
<path d="M28.7216 16.6723L22.6039 11.2135L22.4 20.8135L31.2157 20.4213L28.7216 16.6723Z" fill="#E4761B" stroke="#E4761B" stroke-width="0.3125" stroke-linecap="round" stroke-linejoin="round"/>
<path d="M11.7647 33.8017L17.0667 31.2135L12.4863 27.637L11.7647 33.8017Z" fill="#E4761B" stroke="#E4761B" stroke-width="0.3125" stroke-linecap="round" stroke-linejoin="round"/>
<path d="M22.9177 31.2135L28.2353 33.8017L27.4981 27.637L22.9177 31.2135Z" fill="#E4761B" stroke="#E4761B" stroke-width="0.3125" stroke-linecap="round" stroke-linejoin="round"/>
<path d="M28.2353 33.8017L22.9176 31.2135L23.3412 34.6802L23.2941 36.139L28.2353 33.8017Z" fill="#D7C1B3" stroke="#D7C1B3" stroke-width="0.3125" stroke-linecap="round" stroke-linejoin="round"/>
<path d="M11.7647 33.8017L16.7059 36.139L16.6745 34.6802L17.0667 31.2135L11.7647 33.8017Z" fill="#D7C1B3" stroke="#D7C1B3" stroke-width="0.3125" stroke-linecap="round" stroke-linejoin="round"/>
<path d="M16.7843 25.3468L12.3608 24.0449L15.4823 22.6174L16.7843 25.3468Z" fill="#233447" stroke="#233447" stroke-width="0.3125" stroke-linecap="round" stroke-linejoin="round"/>
<path d="M23.2 25.3468L24.502 22.6174L27.6392 24.0449L23.2 25.3468Z" fill="#233447" stroke="#233447" stroke-width="0.3125" stroke-linecap="round" stroke-linejoin="round"/>
<path d="M11.7647 33.8017L12.5176 27.4331L7.60784 27.5743L11.7647 33.8017Z" fill="#CD6116" stroke="#CD6116" stroke-width="0.3125" stroke-linecap="round" stroke-linejoin="round"/>
<path d="M27.4824 27.4331L28.2353 33.8017L32.3922 27.5743L27.4824 27.4331Z" fill="#CD6116" stroke="#CD6116" stroke-width="0.3125" stroke-linecap="round" stroke-linejoin="round"/>
<path d="M31.2157 20.4213L22.4 20.8135L23.2157 25.3468L24.5176 22.6174L27.6549 24.0449L31.2157 20.4213Z" fill="#CD6116" stroke="#CD6116" stroke-width="0.3125" stroke-linecap="round" stroke-linejoin="round"/>
<path d="M12.3608 24.0449L15.498 22.6174L16.7843 25.3468L17.6157 20.8135L8.78432 20.4213L12.3608 24.0449Z" fill="#CD6116" stroke="#CD6116" stroke-width="0.3125" stroke-linecap="round" stroke-linejoin="round"/>
<path d="M8.78432 20.4213L12.4863 27.637L12.3608 24.0449L8.78432 20.4213Z" fill="#E4751F" stroke="#E4751F" stroke-width="0.3125" stroke-linecap="round" stroke-linejoin="round"/>
<path d="M27.6549 24.0449L27.498 27.637L31.2157 20.4213L27.6549 24.0449Z" fill="#E4751F" stroke="#E4751F" stroke-width="0.3125" stroke-linecap="round" stroke-linejoin="round"/>
<path d="M17.6157 20.8135L16.7843 25.3468L17.8196 30.6958L18.0549 23.6527L17.6157 20.8135Z" fill="#E4751F" stroke="#E4751F" stroke-width="0.3125" stroke-linecap="round" stroke-linejoin="round"/>
<path d="M22.4 20.8135L21.9765 23.637L22.1647 30.6958L23.2157 25.3468L22.4 20.8135Z" fill="#E4751F" stroke="#E4751F" stroke-width="0.3125" stroke-linecap="round" stroke-linejoin="round"/>
<path d="M23.2157 25.3468L22.1647 30.6958L22.9176 31.2135L27.498 27.637L27.6549 24.0449L23.2157 25.3468Z" fill="#F6851B" stroke="#F6851B" stroke-width="0.3125" stroke-linecap="round" stroke-linejoin="round"/>
<path d="M12.3608 24.0449L12.4863 27.637L17.0667 31.2135L17.8196 30.6958L16.7843 25.3468L12.3608 24.0449Z" fill="#F6851B" stroke="#F6851B" stroke-width="0.3125" stroke-linecap="round" stroke-linejoin="round"/>
<path d="M23.2941 36.139L23.3412 34.6801L22.949 34.335H17.0353L16.6745 34.6801L16.7059 36.139L11.7647 33.8017L13.4902 35.2135L16.9882 37.6448H22.9961L26.5098 35.2135L28.2353 33.8017L23.2941 36.139Z" fill="#C0AD9E" stroke="#C0AD9E" stroke-width="0.3125" stroke-linecap="round" stroke-linejoin="round"/>
<path d="M22.9176 31.2135L22.1647 30.6959H17.8196L17.0667 31.2135L16.6745 34.6802L17.0353 34.3351H22.949L23.3412 34.6802L22.9176 31.2135Z" fill="#161616" stroke="#161616" stroke-width="0.3125" stroke-linecap="round" stroke-linejoin="round"/>
<path d="M38.6667 12.9076L40 6.5076L38.0078 0.5625L22.9176 11.7625L28.7216 16.6723L36.9255 19.0723L38.7451 16.9547L37.9608 16.39L39.2157 15.2449L38.2431 14.4919L39.498 13.5351L38.6667 12.9076Z" fill="#763D16" stroke="#763D16" stroke-width="0.3125" stroke-linecap="round" stroke-linejoin="round"/>
<path d="M0 6.5076L1.33333 12.9076L0.486275 13.5351L1.74118 14.4919L0.784314 15.2449L2.03922 16.39L1.2549 16.9547L3.05882 19.0723L11.2627 16.6723L17.0667 11.7625L1.97647 0.5625L0 6.5076Z" fill="#763D16" stroke="#763D16" stroke-width="0.3125" stroke-linecap="round" stroke-linejoin="round"/>
<path d="M36.9255 19.0723L28.7216 16.6723L31.2157 20.4213L27.498 27.637L32.3922 27.5743H39.6863L36.9255 19.0723Z" fill="#F6851B" stroke="#F6851B" stroke-width="0.3125" stroke-linecap="round" stroke-linejoin="round"/>
<path d="M11.2627 16.6723L3.05883 19.0723L0.329414 27.5743H7.60785L12.4863 27.637L8.78432 20.4213L11.2627 16.6723Z" fill="#F6851B" stroke="#F6851B" stroke-width="0.3125" stroke-linecap="round" stroke-linejoin="round"/>
<path d="M22.4 20.8135L22.9176 11.7625L25.302 5.31543H14.7137L17.0667 11.7625L17.6157 20.8135L17.8039 23.6684L17.8196 30.6958H22.1647L22.1961 23.6684L22.4 20.8135Z" fill="#F6851B" stroke="#F6851B" stroke-width="0.3125" stroke-linecap="round" stroke-linejoin="round"/>
</g>
<defs>
<filter id="filter0_d_20_8533" x="-4.15625" y="0.40625" width="48.3125" height="45.3948" filterUnits="userSpaceOnUse" color-interpolation-filters="sRGB">
<feFlood flood-opacity="0" result="BackgroundImageFix"/>
<feColorMatrix in="SourceAlpha" type="matrix" values="0 0 0 0 0 0 0 0 0 0 0 0 0 0 0 0 0 0 127 0" result="hardAlpha"/>
<feOffset dy="4"/>
<feGaussianBlur stdDeviation="2"/>
<feComposite in2="hardAlpha" operator="out"/>
<feColorMatrix type="matrix" values="0 0 0 0 0 0 0 0 0 0 0 0 0 0 0 0 0 0 0.25 0"/>
<feBlend mode="normal" in2="BackgroundImageFix" result="effect1_dropShadow_20_8533"/>
<feBlend mode="normal" in="SourceGraphic" in2="effect1_dropShadow_20_8533" result="shape"/>
</filter>
</defs>
</svg>
