<svg width="20" height="20" viewBox="0 0 20 20" fill="none" xmlns="http://www.w3.org/2000/svg">
<path fill-rule="evenodd" clip-rule="evenodd" d="M19.1049 10.5462C17.9884 10.2467 17.7354 7.62672 18.6513 7.09777C18.9515 6.92361 19.1843 6.67665 19.338 6.39177C19.0999 5.52242 18.287 4.26997 17.8286 3.71284C17.4933 3.69719 17.1505 3.77388 16.8385 3.95425C15.8396 4.53196 13.7744 2.98683 14.082 1.83679C14.1783 1.4775 14.1274 1.04172 14.049 0.787067C13.4812 0.493201 12.1367 0.097883 11.138 0C10.9229 0.156708 10.6764 0.535671 10.5804 0.897378C10.2546 2.11338 7.67641 2.29015 7.1234 1.33173C6.93884 1.01147 6.59879 0.713238 6.36383 0.615105C5.7178 0.811037 4.314 1.62553 3.74633 2.09579C3.78552 2.42889 3.79314 2.8158 3.98397 3.1461C4.53656 4.10473 3.03995 6.23638 1.85813 5.91946C1.46933 5.8154 1.06132 5.84498 0.728517 5.98214C0.454233 6.58981 0.0392 8.19268 0 8.83906C0.0783851 9.01538 0.545766 9.3251 0.9196 9.42518C2.52819 9.85672 2.54082 12.2177 1.3754 12.8911C1.04617 13.0814 0.7642 13.3457 0.646817 13.6789C0.842583 14.3059 1.62943 15.6841 2.13842 16.2721C2.47123 16.3112 2.85781 16.2257 3.18804 16.0345C4.22885 15.4326 6.31036 16.8482 5.95853 18.1626C5.86713 18.5047 5.91772 18.8645 5.9763 19.2174C6.75951 19.5505 8.1763 20.0191 8.95948 19.9994C9.2139 19.7642 9.37088 19.4366 9.46026 19.1021C9.76826 17.9516 12.3109 17.5844 12.9118 18.626C13.0795 18.9174 13.3146 19.1938 13.5886 19.3506C14.4108 19.1153 15.856 18.3059 16.3463 17.7965C16.3655 17.4242 16.2255 17.1134 16.0515 16.8112C15.402 15.6864 16.9191 13.7169 18.1664 14.0517C18.5081 14.143 18.88 14.1122 19.1934 14.0339C19.4675 13.3479 19.9218 12.1225 19.9999 11.1036C19.7258 10.7901 19.4658 10.643 19.1051 10.5461L19.1049 10.5462ZM15.304 11.3063C14.5426 14.1522 11.6207 15.8403 8.77752 15.0781C5.93502 14.3155 4.24803 11.3905 5.00969 8.54477C5.77128 5.69918 8.69335 4.01076 11.5359 4.77307C14.3787 5.5355 16.0658 8.46019 15.304 11.3063Z" fill="#CC402A"/>
</svg>
