<svg width="69" height="68" fill="none" xmlns="http://www.w3.org/2000/svg"><g clip-path="url(#clip0_12_193)" fill="#CC402A"><path d="M34.5 11.422C22.05 11.422 11.922 21.55 11.922 34S22.05 56.578 34.5 56.578 57.078 46.449 57.078 34c0-12.45-10.128-22.578-22.578-22.578zm16.655 33.497c-2.231-.999-4.977-1.767-8.04-2.266.381-2.305.607-4.776.666-7.325h10.596a19.793 19.793 0 01-3.222 9.59zM34.5 53.799c-1.486 0-3.126-1.996-4.388-5.34a29.454 29.454 0 01-1.066-3.54 53.243 53.243 0 015.454-.277c1.863 0 3.697.096 5.454.278a29.465 29.465 0 01-1.066 3.538C37.626 51.803 35.986 53.8 34.5 53.8zm0-11.814c-2.04 0-4.05.112-5.98.323a49.796 49.796 0 01-.643-6.98h.647a1.328 1.328 0 000-2.656h-.647a49.84 49.84 0 01.641-6.971c1.917.206 3.924.314 5.982.314 2.04 0 4.05-.112 5.98-.323a49.78 49.78 0 01.643 6.98h-.646a1.328 1.328 0 000 2.656h.646a49.773 49.773 0 01-.641 6.971 56.173 56.173 0 00-5.982-.314zm-19.876-6.657h10.595c.059 2.554.286 5.03.668 7.338-3.069.503-5.834 1.27-8.041 2.253a19.79 19.79 0 01-3.222-9.59zm3.222-12.247c2.23.999 4.976 1.767 8.038 2.266a52.64 52.64 0 00-.665 7.325H14.623a19.793 19.793 0 013.223-9.59zm16.654-8.88c1.486 0 3.126 1.997 4.388 5.34a29.465 29.465 0 011.066 3.54c-1.757.181-3.59.277-5.454.277-1.863 0-3.697-.096-5.454-.278a29.434 29.434 0 011.066-3.538c1.262-3.345 2.902-5.341 4.388-5.341zm9.281 18.47a52.62 52.62 0 00-.667-7.337c3.068-.503 5.833-1.27 8.04-2.253a19.792 19.792 0 013.222 9.59H43.782zm5.717-11.77c-1.929.789-4.287 1.411-6.897 1.832a32.348 32.348 0 00-1.228-4.129c-.584-1.55-1.253-2.862-1.987-3.919a19.95 19.95 0 0110.111 6.217zm-19.883-6.216c-.735 1.057-1.403 2.37-1.988 3.92a32.35 32.35 0 00-1.228 4.127c-2.608-.42-4.966-1.043-6.896-1.831a19.95 19.95 0 0110.112-6.216zM19.503 47.098c1.928-.788 4.287-1.41 6.896-1.83.341 1.48.752 2.865 1.228 4.128.585 1.55 1.253 2.861 1.988 3.919a19.95 19.95 0 01-10.112-6.217zm19.883 6.217c.734-1.057 1.402-2.37 1.987-3.92a32.354 32.354 0 001.228-4.127c2.608.42 4.966 1.043 6.896 1.831-2.624 3-6.13 5.209-10.111 6.216zM34.5 8.633a4.321 4.321 0 004.317-4.317A4.321 4.321 0 0034.5 0a4.321 4.321 0 00-4.316 4.316A4.321 4.321 0 0034.5 8.633zm0-5.977a1.661 1.661 0 11-1.66 1.66c0-.915.745-1.66 1.66-1.66zM13.51 17.325c1.106 0 2.211-.42 3.053-1.262a4.288 4.288 0 001.264-3.052 4.287 4.287 0 00-1.264-3.053 4.321 4.321 0 00-6.105 0 4.321 4.321 0 000 6.105 4.303 4.303 0 003.053 1.262zm-1.173-5.488a1.662 1.662 0 012.834 1.174 1.662 1.662 0 01-2.834 1.174 1.662 1.662 0 010-2.348zM9.133 34a4.321 4.321 0 00-4.317-4.316A4.321 4.321 0 00.5 34a4.321 4.321 0 004.316 4.316A4.321 4.321 0 009.133 34zm-4.317 1.66c-.915 0-1.66-.744-1.66-1.66a1.661 1.661 0 111.66 1.66zm5.642 16.278a4.321 4.321 0 000 6.104 4.303 4.303 0 003.053 1.262c1.105 0 2.21-.42 3.052-1.262a4.321 4.321 0 000-6.105 4.321 4.321 0 00-6.105 0zm4.226 4.225a1.66 1.66 0 01-2.347 0 1.662 1.662 0 010-2.347 1.662 1.662 0 012.348 0c.647.647.647 1.7 0 2.347zM34.5 59.367a4.321 4.321 0 00-4.316 4.317A4.321 4.321 0 0034.5 68a4.321 4.321 0 004.316-4.316 4.321 4.321 0 00-4.316-4.317zm0 5.977c-.915 0-1.66-.745-1.66-1.66a1.661 1.661 0 111.66 1.66zm20.99-14.671a4.287 4.287 0 00-3.053 1.264 4.321 4.321 0 000 6.105 4.288 4.288 0 003.053 1.264 4.287 4.287 0 003.052-1.264 4.321 4.321 0 000-6.105 4.287 4.287 0 00-3.053-1.264zm1.173 5.49c-.313.314-.73.487-1.173.487a1.662 1.662 0 010-3.32 1.662 1.662 0 011.174 2.834zm7.521-26.479A4.321 4.321 0 0059.867 34a4.321 4.321 0 004.317 4.316A4.321 4.321 0 0068.5 34a4.321 4.321 0 00-4.316-4.316zm0 5.976a1.661 1.661 0 010-3.32c.915 0 1.66.744 1.66 1.66 0 .916-.745 1.66-1.66 1.66zM55.49 17.327c1.153 0 2.237-.45 3.052-1.264a4.288 4.288 0 001.264-3.052 4.288 4.288 0 00-1.264-3.053 4.288 4.288 0 00-3.053-1.264 4.288 4.288 0 00-3.051 1.264 4.288 4.288 0 00-1.265 3.052c0 1.153.45 2.237 1.264 3.053a4.287 4.287 0 003.053 1.264zm-1.174-5.49a1.65 1.65 0 011.173-.487c.444 0 .861.173 1.174.487.314.313.487.73.487 1.174 0 .443-.173.86-.487 1.174a1.65 1.65 0 01-1.173.486c-.444 0-.86-.173-1.174-.487a1.65 1.65 0 01-.486-1.173c0-.444.172-.86.486-1.174zm-33.893-.361c.17 0 .342-.033.508-.102l7.165-2.968a1.328 1.328 0 10-1.016-2.454L19.914 8.92a1.328 1.328 0 00.51 2.556zM7.171 28.315a1.329 1.329 0 001.735-.719l2.969-7.165a1.328 1.328 0 00-2.454-1.017L6.453 26.58c-.281.678.04 1.454.718 1.735zm3.477 21.091a1.328 1.328 0 001.226-1.837l-2.968-7.165a1.328 1.328 0 10-2.454 1.016l2.968 7.166c.212.511.707.82 1.228.82zm17.448 10.188l-7.165-2.968a1.328 1.328 0 00-1.017 2.454l7.166 2.968a1.329 1.329 0 001.017-2.454zm19.974-2.968l-7.166 2.968a1.328 1.328 0 001.016 2.454l7.166-2.968a1.328 1.328 0 10-1.017-2.454zm13.759-16.941a1.328 1.328 0 00-1.735.719l-2.968 7.165a1.328 1.328 0 102.454 1.017l2.968-7.166a1.328 1.328 0 00-.719-1.735zm-3.985-20.99a1.329 1.329 0 00-.718 1.736l2.968 7.165a1.329 1.329 0 102.454-1.016l-2.968-7.166a1.33 1.33 0 00-1.736-.719zM40.904 8.406l7.165 2.969a1.329 1.329 0 001.017-2.454L41.92 5.952a1.328 1.328 0 00-1.016 2.454z"/><path d="M34.501 32.672H34.5a1.328 1.328 0 10-.002 2.655 1.328 1.328 0 00.003-2.655z"/></g><defs><clipPath id="clip0_12_193"><path fill="#fff" transform="translate(.5)" d="M0 0h68v68H0z"/></clipPath></defs></svg>