<svg width="69" height="68" fill="none" xmlns="http://www.w3.org/2000/svg"><g clip-path="url(#clip0_13_314)"><path d="M34.5 23.096a5.975 5.975 0 100-11.95 5.975 5.975 0 000 11.95zm8.46 9.931v-5.024a4.908 4.908 0 00-4.908-4.906h-7.104a4.908 4.908 0 00-4.908 4.906v5.024" stroke="#CC402A" stroke-width="2.5" stroke-miterlimit="10" stroke-linecap="round" stroke-linejoin="round"/><path d="M50.664 13.93v-3.27L34.5 1.328 18.336 10.66v18.665L34.5 38.657l16.164-9.332v-3.292m0 25.026a5.975 5.975 0 100-11.95 5.975 5.975 0 000 11.95zm8.46 9.983v-5.024a4.907 4.907 0 00-4.908-4.906h-7.104a4.907 4.907 0 00-4.908 4.906v5.024" stroke="#CC402A" stroke-width="2.5" stroke-miterlimit="10" stroke-linecap="round" stroke-linejoin="round"/><path d="M34.5 38.675V57.34l16.164 9.332 16.164-9.332V38.675l-16.164-9.332L34.5 38.675zM18.336 51.059a5.975 5.975 0 100-11.95 5.975 5.975 0 000 11.95zm8.46 9.983v-5.024a4.907 4.907 0 00-4.908-4.906h-7.104a4.908 4.908 0 00-4.908 4.906v5.024" stroke="#CC402A" stroke-width="2.5" stroke-miterlimit="10" stroke-linecap="round" stroke-linejoin="round"/><path d="M2.172 38.675V57.34l16.164 9.332L34.5 57.34V38.675l-16.164-9.332-16.164 9.332z" stroke="#CC402A" stroke-width="2.5" stroke-miterlimit="10" stroke-linecap="round" stroke-linejoin="round"/><circle cx="50.663" cy="19.993" r="1.328" fill="#CC402A"/></g><defs><clipPath id="clip0_13_314"><path fill="#fff" transform="translate(.5)" d="M0 0h68v68H0z"/></clipPath></defs></svg>