<svg width="28" height="28" viewBox="0 0 28 28" fill="none" xmlns="http://www.w3.org/2000/svg">
<g clip-path="url(#clip0_26_227)">
<path d="M15.9644 10.4091C15.9644 8.95832 17.1495 7.78208 18.6104 7.78208C20.0713 7.78208 21.2564 8.95832 21.2564 10.4082C21.2564 11.859 20.0722 13.0343 18.6104 13.0343C18.6104 13.0343 18.6104 13.0343 18.6095 13.0343C17.1486 13.0343 15.9644 11.859 15.9644 10.4091C15.9644 10.4091 15.9635 10.4091 15.9635 10.4082L15.9644 10.4091ZM22.1229 10.4147C22.1229 8.4843 20.5461 6.91939 18.6011 6.91939C16.656 6.91939 15.0793 8.4843 15.0793 10.4147C15.0793 12.3451 16.656 13.91 18.6011 13.91C20.5452 13.9072 22.1201 12.3432 22.1229 10.4147ZM8.79089 21.1984L7.07018 20.4916C7.55994 21.4916 8.57592 22.1687 9.75078 22.1687C10.9817 22.1687 12.0388 21.4257 12.4893 20.3663L12.4968 20.3469C12.6417 20.0111 12.7267 19.6196 12.7267 19.2096C12.7267 17.5797 11.3958 16.2588 9.75359 16.2588C9.37505 16.2588 9.01334 16.3293 8.6806 16.4564L8.70116 16.4499L10.4798 17.1799C11.2761 17.5176 11.8248 18.2894 11.8248 19.1873C11.8248 20.3895 10.8425 21.3645 9.63115 21.3645C9.32832 21.3645 9.04044 21.3032 8.7778 21.1938L8.79182 21.1993L8.79089 21.1984ZM13.9754 0.0892334C6.63182 0.090161 0.608882 5.69769 0.0135043 12.833L0.00976562 12.8831L7.52255 15.9647C8.14691 15.5362 8.91987 15.2811 9.75359 15.2811C9.75452 15.2811 9.75546 15.2811 9.75546 15.2811C9.82929 15.2811 9.90126 15.2857 9.9751 15.2885L13.3165 10.4871V10.4184C13.3193 7.5242 15.684 5.17915 18.6001 5.17915C21.5181 5.17915 23.8838 7.52699 23.8838 10.4231C23.8838 13.3191 21.5181 15.667 18.6001 15.667H18.4777L13.7165 19.0417C13.7165 19.102 13.7212 19.1632 13.7212 19.2263C13.7212 19.2272 13.7212 19.2281 13.7212 19.2291C13.7212 21.4016 11.9463 23.1631 9.75733 23.1631C7.84408 23.1631 6.24675 21.8172 5.87569 20.0278L5.87101 20.0027L0.49205 17.7922C2.21276 23.678 7.59639 27.908 13.9745 27.908C21.7144 27.908 27.9888 21.6808 27.9888 13.9991C27.9888 6.31735 21.7144 0.0901611 13.9745 0.0901611L13.9754 0.0892334Z" fill="#E3DAD1"/>
</g>
<defs>
<clipPath id="clip0_26_227">
<rect width="28" height="28" fill="white"/>
</clipPath>
</defs>
</svg>
