<svg width="28" height="28" fill="none" xmlns="http://www.w3.org/2000/svg"><g clip-path="url(#clip0_4_156)"><path d="M15.965 10.41a2.637 2.637 0 012.646-2.628 2.637 2.637 0 012.646 2.626 2.636 2.636 0 01-2.646 2.626h-.001a2.635 2.635 0 01-2.645-2.625h-.001zm6.158.005c0-1.93-1.577-3.496-3.522-3.496-1.945 0-3.521 1.565-3.521 3.496 0 1.93 1.576 3.495 3.521 3.495 1.944-.003 3.52-1.567 3.522-3.495zM8.791 21.198l-1.72-.706c.49 1 1.505 1.677 2.68 1.677 1.23 0 2.288-.743 2.739-1.803l.007-.02a2.89 2.89 0 00.23-1.136c0-1.63-1.331-2.951-2.973-2.951-.379 0-.74.07-1.073.197l.02-.006 1.779.73a2.182 2.182 0 011.345 2.007 2.186 2.186 0 01-2.194 2.177 2.2 2.2 0 01-.853-.17l.014.005zM13.976.09C6.632.09.609 5.698.014 12.833l-.004.05 7.513 3.082a3.94 3.94 0 012.23-.684h.003c.073 0 .145.005.22.008l3.34-4.802v-.069C13.32 7.524 15.685 5.18 18.6 5.18c2.918 0 5.284 2.348 5.284 5.244s-2.366 5.244-5.284 5.244h-.122l-4.761 3.375c0 .06.004.121.004.184v.003c0 2.173-1.774 3.934-3.963 3.934a3.957 3.957 0 01-3.882-3.135l-.005-.025-5.379-2.21c1.72 5.885 7.105 10.115 13.483 10.115 7.74 0 14.014-6.227 14.014-13.909S21.715.09 13.975.09z" fill="#E3DAD1"/></g><defs><clipPath id="clip0_4_156"><path fill="#fff" d="M0 0h28v28H0z"/></clipPath></defs></svg>