<svg width="28" height="29" fill="none" xmlns="http://www.w3.org/2000/svg"><g clip-path="url(#clip0_21_47)"><path d="M15.964 10.91a2.637 2.637 0 012.646-2.628 2.637 2.637 0 012.646 2.626 2.636 2.636 0 01-2.646 2.626 2.635 2.635 0 01-2.646-2.625zm6.159.005c0-1.93-1.577-3.496-3.522-3.496-1.945 0-3.522 1.565-3.522 3.496 0 1.93 1.577 3.495 3.522 3.495 1.944-.003 3.52-1.567 3.522-3.495zM8.79 21.698l-1.72-.706a2.977 2.977 0 002.68 1.677c1.23 0 2.288-.743 2.738-1.803l.008-.02a2.89 2.89 0 00.23-1.136c0-1.63-1.331-2.951-2.973-2.951-.379 0-.74.07-1.073.197l.02-.006 1.779.73a2.182 2.182 0 011.345 2.007 2.186 2.186 0 01-2.194 2.177 2.2 2.2 0 01-.853-.17l.014.005H8.79zM13.975.59C6.632.59.61 6.198.014 13.333l-.004.05 7.513 3.082a3.94 3.94 0 012.23-.684h.002c.074 0 .146.005.22.008l3.341-4.802v-.069C13.32 8.024 15.684 5.68 18.6 5.68c2.918 0 5.284 2.348 5.284 5.244s-2.366 5.244-5.284 5.244h-.122l-4.762 3.375c0 .06.005.121.005.184v.003c0 2.173-1.775 3.934-3.964 3.934a3.957 3.957 0 01-3.881-3.135l-.005-.025-5.379-2.21c1.72 5.885 7.104 10.115 13.482 10.115 7.74 0 14.015-6.227 14.015-13.909S21.714.59 13.975.59z" fill="#CC402A"/></g><defs><clipPath id="clip0_21_47"><path fill="#fff" transform="translate(0 .5)" d="M0 0h28v28H0z"/></clipPath></defs></svg>