<svg width="28" height="29" fill="none" xmlns="http://www.w3.org/2000/svg"><path d="M23.454 3.375H4.546A3.545 3.545 0 001 6.92v14.182a3.546 3.546 0 003.545 3.546h18.91A3.545 3.545 0 0027 21.102V6.92a3.546 3.546 0 00-3.546-3.545zm-.387 14.915a1.182 1.182 0 11-1.588 1.749l-4.897-4.444a4.653 4.653 0 01-5.164 0L6.52 20.039a1.182 1.182 0 01-1.588-1.75l4.675-4.243-4.676-4.254a1.182 1.182 0 111.59-1.749l5.885 5.353a2.37 2.37 0 003.19 0l5.88-5.353a1.182 1.182 0 011.591 1.75l-4.675 4.254 4.674 4.242z" fill="#CC402A"/></svg>