<svg width="28" height="28" fill="none" xmlns="http://www.w3.org/2000/svg"><path d="M8.475 12.575c0-.18.146-.325.325-.325h1.98c.133 0 .252.08.302.204l.52 1.3a.325.325 0 010 .242l-.52 1.3a.325.325 0 01-.302.204H8.8a.325.325 0 01-.325-.325v-2.6z" fill="#CC402A"/><path fill-rule="evenodd" clip-rule="evenodd" d="M14 26.875c7.18 0 13-5.82 13-13s-5.82-13-13-13-13 5.82-13 13 5.82 13 13 13zM8.8 10.3a2.275 2.275 0 00-2.275 2.275v2.6A2.275 2.275 0 008.8 17.45h1.98c.93 0 1.767-.566 2.112-1.43l.468-1.17h2.575c.072.352.026.723-.138 1.052l-.07.137a.975.975 0 101.745.872l.069-.137c.301-.603.422-1.27.362-1.924h1.932c.072.352.026.723-.138 1.052l-.07.137a.975.975 0 101.745.872l.069-.137a3.575 3.575 0 000-3.198 1.223 1.223 0 00-1.094-.676H13.36l-.468-1.17a2.275 2.275 0 00-2.112-1.43H8.8z" fill="#CC402A"/></svg>